<mxfile host="app.diagrams.net" modified="2021-11-11T06:19:12.768Z" agent="5.0 (Windows NT 10.0; Win64; x64) AppleWebKit/537.36 (KHTML, like Gecko) Chrome/95.0.4638.69 Safari/537.36" etag="6DAfhMcIcx2_xMily_wD" version="15.7.3" type="github">
  <diagram id="-MfTe0uy70lB-MDZyKfr" name="Page-1">
    <mxGraphModel dx="1422" dy="794" grid="1" gridSize="10" guides="1" tooltips="1" connect="1" arrows="1" fold="1" page="1" pageScale="1" pageWidth="1100" pageHeight="850" math="0" shadow="0">
      <root>
        <mxCell id="0" />
        <mxCell id="1" parent="0" />
        <mxCell id="vA2p_uhd6oJHB0OSIscs-1" value="&lt;font style=&quot;vertical-align: inherit&quot;&gt;&lt;font style=&quot;vertical-align: inherit&quot;&gt;RFID标签&lt;/font&gt;&lt;/font&gt;" style="rounded=1;whiteSpace=wrap;html=1;strokeWidth=2;fillWeight=4;hachureGap=8;hachureAngle=45;sketch=1;fillColor=#dae8fc;strokeColor=#6c8ebf;" vertex="1" parent="1">
          <mxGeometry x="451" y="183" width="120" height="60" as="geometry" />
        </mxCell>
        <mxCell id="vA2p_uhd6oJHB0OSIscs-2" value="&lt;font style=&quot;vertical-align: inherit&quot;&gt;&lt;font style=&quot;vertical-align: inherit&quot;&gt;高成本&lt;/font&gt;&lt;/font&gt;" style="rounded=1;whiteSpace=wrap;html=1;strokeWidth=2;fillWeight=4;hachureGap=8;hachureAngle=45;sketch=1;fillColor=#dae8fc;strokeColor=#6c8ebf;" vertex="1" parent="1">
          <mxGeometry x="300" y="270" width="120" height="60" as="geometry" />
        </mxCell>
        <mxCell id="vA2p_uhd6oJHB0OSIscs-3" value="低成本" style="rounded=1;whiteSpace=wrap;html=1;strokeWidth=2;fillWeight=4;hachureGap=8;hachureAngle=45;sketch=1;fillColor=#dae8fc;strokeColor=#6c8ebf;" vertex="1" parent="1">
          <mxGeometry x="594" y="270" width="120" height="60" as="geometry" />
        </mxCell>
        <mxCell id="vA2p_uhd6oJHB0OSIscs-4" value="完整级" style="rounded=1;whiteSpace=wrap;html=1;strokeWidth=2;fillWeight=4;hachureGap=8;hachureAngle=45;sketch=1;fillColor=#dae8fc;strokeColor=#6c8ebf;" vertex="1" parent="1">
          <mxGeometry x="220" y="355" width="120" height="60" as="geometry" />
        </mxCell>
        <mxCell id="vA2p_uhd6oJHB0OSIscs-5" value="简单级" style="rounded=1;whiteSpace=wrap;html=1;strokeWidth=2;fillWeight=4;hachureGap=8;hachureAngle=45;sketch=1;fillColor=#dae8fc;strokeColor=#6c8ebf;" vertex="1" parent="1">
          <mxGeometry x="379" y="355" width="120" height="60" as="geometry" />
        </mxCell>
        <mxCell id="vA2p_uhd6oJHB0OSIscs-7" value="轻量级" style="rounded=1;whiteSpace=wrap;html=1;strokeWidth=2;fillWeight=4;hachureGap=8;hachureAngle=45;sketch=1;fillColor=#dae8fc;strokeColor=#6c8ebf;" vertex="1" parent="1">
          <mxGeometry x="516" y="355" width="120" height="60" as="geometry" />
        </mxCell>
        <mxCell id="vA2p_uhd6oJHB0OSIscs-8" value="超轻量级" style="rounded=1;whiteSpace=wrap;html=1;strokeWidth=2;fillWeight=4;hachureGap=8;hachureAngle=45;sketch=1;fillColor=#dae8fc;strokeColor=#6c8ebf;" vertex="1" parent="1">
          <mxGeometry x="673" y="355" width="120" height="60" as="geometry" />
        </mxCell>
        <mxCell id="vA2p_uhd6oJHB0OSIscs-9" value="" style="shape=curlyBracket;whiteSpace=wrap;html=1;rounded=1;rotation=90;" vertex="1" parent="1">
          <mxGeometry x="496.5" y="107.5" width="20" height="295" as="geometry" />
        </mxCell>
        <mxCell id="vA2p_uhd6oJHB0OSIscs-10" value="" style="shape=curlyBracket;whiteSpace=wrap;html=1;rounded=1;rotation=90;" vertex="1" parent="1">
          <mxGeometry x="350" y="260" width="20" height="160" as="geometry" />
        </mxCell>
        <mxCell id="vA2p_uhd6oJHB0OSIscs-12" value="" style="shape=curlyBracket;whiteSpace=wrap;html=1;rounded=1;rotation=90;" vertex="1" parent="1">
          <mxGeometry x="644" y="260" width="20" height="160" as="geometry" />
        </mxCell>
      </root>
    </mxGraphModel>
  </diagram>
</mxfile>
